<mxfile host="app.diagrams.net" modified="2021-04-27T00:59:51.086Z" agent="5.0 (Windows NT 10.0; Win64; x64) AppleWebKit/537.36 (KHTML, like Gecko) Chrome/90.0.4430.85 Safari/537.36" etag="Gn14vB_DVzodb7gKqPdC" version="14.4.9" type="github">
  <diagram id="B10YrN2g_N5sBnhQTIPh" name="Page-1">
    <mxGraphModel dx="1422" dy="737" grid="1" gridSize="10" guides="1" tooltips="1" connect="1" arrows="1" fold="1" page="1" pageScale="1" pageWidth="850" pageHeight="1100" math="0" shadow="0">
      <root>
        <mxCell id="0" />
        <mxCell id="1" parent="0" />
        <mxCell id="HRC4iughUWAbwfXFyBaF-123" value="" style="shape=image;verticalLabelPosition=bottom;labelBackgroundColor=#ffffff;verticalAlign=top;aspect=fixed;imageAspect=0;image=data:image/png,iVBORw0KGgoAAAANSUhEUgAAAgAAAAIACAQAAABecRxxAAA/HElEQVR42u2ddbxc1bXHvyPxBCkEd6cUtybQ4rS0PLRIKVooJLi0aLEixV0LlADB5VGcog93DcWKheCQEAIkGdvvj33OyM29d9aZOTOTO/P7ns/n9bW599wzc/bSvdbaIIQQQgghhBBCCCGEEEIIIYQQQgghhBBCCCGEEEIIIYQQQgghhBBCCCGEEEIIIYQQQgghhBBCCCGEEEIIIYQQQgghhBBCCCGEEEIIIYQQQgghhBBCCCGEEEIIIYQQQgghhBBCCCGEEEIIIYQQQgghhBBCCCGEEEIIIYQQQgghhGgTkiT1Jeg9ic4kAUBKX8RMTqrsbQkRm1WB3dkASGhxzcRKOgmsyx7BGxMiNqvycxx59pMfMJPb/lFkcYzUWxJxOv9DeRdHAcd1DAPS+lpmMtLAYK4O3tK7DFMgIOJz/6/CkSVPFse7rA4ktbxmMtd/Zd4se0vXKAwQcVmWP+LIUcBRIIMjxz4KBWYy1380GRyZ4C3lcOymNyTisP4L8y2OPI4CBRw5HI5rFQrMZK6/I1t8R3kck1lYXoCoP/6/s7i0SsurFApoV2Dmcf3D91MI3tidygOIeq3L7jiyFIKlVVpiPhTYX6FAi13/URWuf+kdFcji2F1emqjH/V+IiUX33xWv8lDgOoZqkc00rn/pDfm3NpEFFQaI2hXAbWXuv5tBBfhQ4C1WUygwU7j+rosKyOK4RQpA1OpgbhFk/2dcXt2HAlIBzcrLdO/6d30/fjdgCwVpopZFNoh3Akd/xuVVrgSyOBxjmVVfW5MYxpgeXP+uPkAOxzsMknIW0e3/CT24/92FAhkcz8nVbBJP4cj04Pp3FwacIB9ARI3+l2N60ZF0VVSAzzjvr2izSe9mv15CsxnfjWM6P9W7EdEW2f8a7H9oZTI4rtfX1kSuDr51y9vJ4rhNCkBEcf83wJGvamFKceZ7zKo4s4n5maFV8zPlXkAex0YKA4SdJ03Lq1B0MtfR8mqyiv5FxfdfXUU/oa9NWBfXH4oxps39P0Pi34K3dIo5SPPbgX/QWxIWBvKW0f77n3qDAXL/WxAG9OO1SO/pLQboixPVLctok2UpuZ/ryrK06E2NqMj1V08FjtabEtXt/zumBGDo/p+nRdVCFXCGUVmHJUED9bUJi/23iH8exwRml/vfwjBgGB+a07VZHKOkrkV1+29bUDkcu2hBtVhhb2dK2IY+wNvyAURvy2mU2f5ncTwg6z8TeAF3mXM2WRx/ksoWPZHkVbP9dzhWVX1Zy98YrBC8sep9ATkcr+qNiZ7s/1ZmdzKL43LZkpnkvV1g9gHUHix6cSYfNNr/PI4pLNJHA4AESVKkSJddKVJ9dNB5ApiPbww7N6Hi/rcCN9GdKzky0p5ytBbT1s8LSpI2Pm+KdMvd5CjfVwo4PELthmOEQjcxowK4xpgAzOP4jJ9EsCOtPFg0QariOQeyECPYnF3Zn8M4kiM5jP3Zlc0ZwUIVOfIE6RaprVTETwjDGG/yAXwi8CopANF1CS3I5KoDJkr2/yjzMk0BZ3MDQ5p+mlCi7AkHszqjuYiH+ZipPXzGAlMZz8NcyGhWZ3DZJ2iuGkgDSa7k7Ejf8cFmH8DxLQsoDBCVC+gQk/335T+fmu1/ClgLh+MD/qeJfkCyaOEWYQ9uYHyXz5UnR5ZMcGXJke8iKOO5ntEsOcP9Gv3cCWAlXsZFOOKzVBKUNzQGZXEcrESgqFxCrxQHfVdfPkdGWD4JXsAxDYfjcmZrgh8QWux5Gc0D/Fh8+iwZcoGb3NOVJ0cmmHLocEzlAUYx7wweReNsPxxMNvjGnoukwg80qvAcjpdk/0X54tnIWP+fx/EFcxrtfxo4IHBNvY0dzxYN9QPC+47gn0wsLvhs8bMVTC6yVwXZoiL4hiv5ZU3xedSAZV7uKo77DMesWX2AWZlg9AHyODaUDyBKCcCrDdYjtP+nR1iU8/BVoFrCEeKOMczZED8gdNM34cGizc8ZBb9nRZArqoEH2bRh4YD/Prfiy7JJ/3kcXzJXhGDr+AhvcYwSgSIU0+FlYlpNKKayZIQleVHZ8Gpfi5bDMYGtylzeOEVoAx4NnjVbVDvRRL87NZAnG9zlEdZvgB+QBgZwUaC0Sk+dwXF+BHVrTeR61TKnEoHCL66dDRWAoeW42mg5ksDyFUWqhQo/4FqGx+YH+OdZghuLCT7LsKwoasB/ep8juS1IDcZjP/1dVuf14MnLvQ+/57Kc8W+lgIuNPkAOx44KAoS3Af8qHu9RvYhkrQgK4MYZtqbK/YBP2TYWP8Av4oP4MTisrF6735sv4DMZP/KXmPwA/9kPDex95ZOHW67XRvjGV6no1ej5yuK4XR6ASAALM8W0aHI4nopg17qvLKz0A66r0w/wFXPL8sgM7nP8V/jkXlU+xrJ1VjgmguNX7+/xlJ/w21vTqAISwEPG3RzHFBaSClAAAPtESB3tZbR7vZ8sUO4HfMaOxcVbm/u8F9N6OSSzEUogH2zU7VNHKOC/xe2ZaDjg8+YIQcBOEcK5vRUEyAOAu00BgE8cDTeJahJYo9fOgkpregOL1qACUkCaq4r2s/HiX/43/F+8in41CVECGMzlVZ89/J5WMSuaWYKiYGcIAu6UByDxn5dvTZnjLI5LItj/66uWpobWdFqErcXK6HkBnitWGDRD+LvzA55jvsh5jATwC942PHvoA1wTwQc4qxgMVfsEk5hHKqDTA4AdjS5jAcf6pmWYBJYNDq6yTRb8gDkiLsQ0sBITej0gu/EqwGcyJrBCRBWQAo7FBV0JBcPxq9NYyux7jTSNB/E7ATsoCOhkksBYQwDgxfRN+pmX91nGzkK/DLePuAzTwFpMKZ6P11zhrxTNDI7vWLsGL+CFSOM8TzV/RwleMiQCXaRNXdGmzMKnphKgLI6/m5agLyz6wnTX2iYLpoF1g8Rf68S/pAJ8QvCXkVRACljPNH8hagNWCjjKFAT4qc5DJQSdbP/XN7qLDsfqJmuRAvY223+HY41IVigNjGTqTCD+lSrgR0ZEUgHl3lec4zyTwE8N3035sS7yATo2A3CswVZ4d/KVCFb6KdNetCvWpKciPfNP+XYmEf9KFTCJZSN8liSwOD8YP0UOx2MR3u3TpjeQxXF0zCXZok/xoHmhnGq2P9bRYr6zYOkIFigJzMkHMYh/oazEN0zo1a8C3g/anOzK7LRIo7zWMPtgdsX+gISgM0kAcxu2AKO5iingXFNhkV/4F0eaLADwaM2pv/Ku/2wwCMRfmRkmBdSaDny07Ektn2cevja2YWVxnGlWwmsY6iLCrcC5tBXYqQHAFqbFl8fxPoOM9x3MB+bOwuksG9H+n1eT+JcEP1OlRMb/RHQ1UKjprMQUcEKESUzvms/1STPO/G4301ZgpyqAk4r76NW2iy432/9NIwynvDrC0ksD2wc1C1Ec9lIvXyj603iHO7mI4ziYvdmbgzmOi7mLd4O5RWFLUTQlEDYLObaLsGEH8zHRqDDzOH5tuncKON/wbn0dw4nKAnQq95kyAPYzAJPAZcY6tGjjqZPAwoGo2MW/vGLP4XiXC9iOxXqoZ+jHYmzPhbxbVHzRKgzDs3e+YSHz5/IjU217JvaQKQVsa1Ar/nnvlSB0JrMYduvDVN1ixjhxcDCa0rLwHow4WPyuovsfvXfve67mfyoc6K4Hg5QYwMZcxZQa+gvDMOAu8yfzm3YZ8xiP90xBQAKY39DjGY54HyZh6DSSwIjioq1m/58333PDCGWoO0Yae71b0U4WzOKfC9JcZ7JE8U69DflOkCo+0SKcEczXyZlVQKEY3NhPTU4Ct0bwmtYzexePGjdj7e3Gom1IA/uZll0Gx1lmx/M0U1Yhj+NjZo1g/ecIKhYt9r/S9l/O/EXRt+dH/M8uwBUR/YCwu+GTSIPTNzWOZM2Y6zGtGR7/Le2jLEAnegD/CBzW6h6AvWXkOXNdwXkRjxaxuv9h3J/DMY51gztE3+YKh4Cvx7hIHYdhGHBmhARnf940tfDmcDxt/s62MgVjmaDLUx5Ax/F40Umutlln6URLAIszzVxX8MsIg66WLd63YHT9HY5/MrDOc328EhgQ+AG2UKBQ7N9bJkIL7wnmFl5bPsZPevrR8DZyOP5PwtB5DONLQwowj+NtUxdgGKfnTAHAOLPLmQTGmOrlKsV/VPGp6sPfYXQkFeCf9soI0xNWNp5akIuQX0gGh71Uf8NfKA3YeQHASoZW1NJQSlsX2iWmoCITYQBIEviZsfC3JP5ZNo/x5AE/u2+L4HgT+5NkzPN8AZ4xtfBmcFxo3pK93DTryZFjRQUBnUQK+IPBWnthPcyYIgr70OMbLVI+6tqZLG8Ox3TWiz2plQbWI2Pq4C/5ABcZ1VwKOMYUBORwvGA+lekgc1uwBoN03B7AcaYccR7H5obFkQAWMsWc/oCwweb8//xMMiWzCsU02v80JKedBjYrhjDVnyaPYxLzR5qhaKve/4EFDXdNAr82hRUZHMdqH6DTQoAxRvdwuukkoFQgHnlTUDE2gv3/s3m2gLePezRsKaeBPYoD1GztO4eYLWs/3jb3UGxqVMkLBiq5+hv5p0KATuNRY4LoQ1PtWRo40uRT5ILh4jYhTfCyKTaupbuwNsV5iTEg8U/9coQ7/8OkkjM4jjB+f/14y5DozeF4WALRWQwwnCbvl8b9Zmf9OnPKaQXzcNG1jbMFvLi9SLqhra0JoF9RJdkq99Y2t1HtbNpDyeK43vwp7zBkAfxY1gESik4hASxgcg6jFImkeMW4rfi+cbGlgDMjDxdrbCorBaxpOoMgWg9/AliK6cZ9+5fNAdR5pn0Zxw/Mp6kAnZQBGGloqvXu5uEGdzMBzM4kg1hkcdxiXmpp/mM68d7f99ymZLJDsbKEAXkc/zFnJMJPaxniYSk0TgMHm/YBHIUInZmij5MCtjSPi7CM7E4Cqxqy416lHGOKYK2Z8VDQPot8tkDt/tOcfG5O2FmHqVpHtPvdDss9reXA/j1voY3ATiENjIrVMlj7z/1S28q01NLAocYC2SyOvzZtIysNHB2hh/8vpidLA4eZ9+23M6vlnLHjc08pgE5SAMeYMvaOqaYTZKM4m/68++qW2npsuQtOLZy7aTGsn6b4pfkEvtvNlZSbmg9pO8QYmM0XzB2u7pdpOnBHhQAXGpJDeRxfmw6OCNN1GZOoWuvOh/CJ+dCSc5pqv1LAOREO3xhiVCthGrB6atb6eQcHwUr1O14gD6BTSAA3G7eH/mNqBEoAN1S9o3c1nzPZ6fKsgqW0uLkprCgn8Dny5rN9Bwcqr7rCu9no76R5tWodhb/jTdoF6CT+bSiviVYg8rChsCiL41azQ7yraV/cV8e3ghfMExV3NlvXJw3fYq44fjzON32/hKKTfADLyTFRLE3KVLGXMW/WpYG/myfaHNd09zUF/M08d/dkU3ydAG40embjInpmcQ0aEW1BP94wuprWGvFBjDfcMWPO1peEwdJ4u37T97DL5x9WV6M3mL2es4yZlM9N7VTWKc12lSLagkF8bEwNnWNsO5k1GKBp6wOwWOsEzxpCAJ+onL3p8WsC+AnfGMupnzY38B5h3J2ZYioFiqJSxpuPfhF9nlmCI8Gq2+u/Gbeb5uV7wx3zOLY1KoCBJp8ih+Pxln2PTxhVlK2hKlXWbVhNAfxo3p61tH371uVZJBidEf/D8GBmfHUF8BejAlicqab2GMdvjD7FHIZnjHJqUSOCgCuMlXvfme31NqaNz3DakEUBHGKsz5jCnNoH6BQFYLPXWRwHGBXAzwwze/2/WoaBlg8Yjau0OG7SwRm8tnKqxYwjPDYxlQI5cqatxTSwv1EBfM88UgCdogAsgyK8AtjbIFx+wmDWpAAK/NywcO13bF0Ra5SC6qypAToJ/NJ0WIsjbzoqPA3sbXzGH01zhkRbKIDFTA67VbiiKABbG0sSWNPUXJSPdBhnnKSCw0rzsX7qEaYuTYdjpLFHY09jVmEqi0oBdIoCWMrkXudw7GZUACubmk4cOVY1isJaJlvYuj42+/Hq1paqJLC6Se0546AR66h2f47BUlIAnaIAljbUnHsFsGvMCqBgOofObgtbd759CtjcrADWjFkB2O4YRQFMZ2kpgE5RAIubQ4A/xRwCONYyisJqJpWSx7FNyxSANWdvS9lFCQHyrGZUAH8yhwCLSQF0igJYyJwEHG1MAq5oUgAFHBsZdwGWNXspf2yZAtg9VusaJQloSyumgzONsrFVFoi2UAC2LvEsjv2NCmAFkwKwjgOJ1sl+eMu2Aa11ez8wb6yT/B1TWdxYB7CfeRtwXimATlEAc5kKgaIMnljSnFbc1Wivh/CVsVz5wpZ5ABcZy2y/MFXup4DfGYOK75nLqAAOMhcCDZcC6BQFMJupct96Yow/v8fqU/zZaK/TjDPOtG9dI+u/jc27r5o+sbUUOI9jomlQSxr4q9FLmcysUgCdwmA+NVrXM40O++x8Z5xlc4rZYb/HeHTJBONBY3FjmVjkFcDdsQYVeRz/NY1WTwGnGb2UT1v0LYoW0D84Maa6vf6HeZbNZ8Y7Xm0+KOMi40z7gikjHi/lM4vjClKsg9Xs/YWlk4yqq5Q31Q7cOSR53jgQ5Abz6Klxxt4924yhNHCgKXrN4jio6WlAe5uNNZVqH6yWxXGnOdy71vCUORzPyv3vJB6KfVDUY8bo1XYuUBL4lXngxv0tiV4fMI0EK+DY0OyhWBqMszguM9/xbuObflBC0UlpwP812oVXjMM74LZYm04SwDzBXkX1sZvNrmLzdQoZ49N9Zx5ZPogJxrlK1g7IpGFyofcpblMKsHMCANtJtP68HesG1vmmiL2AYwOz9XrWkAb0y/fIpgYBaeAow9EghQjT9hLAErEXPw00zX7K4rhUR4N1CmngBHMJy3zG/ebDzSM89zMJawo423BPb9/ebPLptgMNadTQWp9pTgH+1njoqE2J+oqP72Oc/STaRgFY68NsVewpYCfTEO+MeWeh/ARDiw+wW9PKgVLAH032P0q3ov0oNOt5TUlgedOgliyOfaUAOoVoJ/ltaWwHsrXv+qNBrC7xnMHYTYsP8FoTHdgUr5sSgH5kqW3UVhK4pmpgVoiYSP2NyadoXUuVaFEOYF2TuFq32HzK7ntjO9D3LGA+HfBW42hw6/iyePyng0xHg7qIJ+6kDLWPXu3ca37SfYw+hW1Um2gLrBP3ohzkAf14O1avwv/EzkFgUajaHuv4lvkbvoiTwAJMCv5itQAgZ56C7Pspphv2FTI4Tjd/f6cbi6mmaR5QZ2Gv3PuXWancbrLW9gXs5xd/aWyPiXKOUX3KM/RKLKruU2Yzh2U7mpqL7UeNJYCbjHWAKgTuOC/gaWOl/ZvG1h040Zyzt57lVxq9bTkiNGeuuavH/T+w6JNYUpPWUuqwaDdjCKFyrGi+60vGdqWnJBKdFgRcby7cWcA40/73JlsdpXAnCaxtOIW3FAbkGdkwFZAG1ir+peqfs2CcfxTe/U1Da5E/ZmSQ8R0PN3V9ZnFcpwCgk7AfvRlthk/GlHMOE3bWnPNjgd9g2bR0fMVSDVEBaWBJvor0LNYzfP0ItILh27OnFe3zhezHl4o2wX4IVTaCW21LA/pFfJ/51GE/eS9nLJDJ4niPeWNfzmlgXt4vRv/VnyWHY2ujmksFffu21qK/mD6d/dyCHI7dtQnYSSSBkeZmVlscmwTGms/z/SHCCMpEEMk6swp4l8VjVQFpYAn+axZ//7QvRvobTxlq9v3fHWEupDrP3FA9QpuAnZYDmCM4ILR6guhF89m2tmOoSvUFVuu4nckHKFcBXwQn5yRjUJb+mJLPjeJfsv/W0ho/UzFveBu+CGig+dmfMPVSOCaZzi4UbeYFvGhcHj+Y0oD+dIC8SUTsLTIhj5u23spVQIZRRcVUn+2HvchGEH//k49FCsiON6hOf98xJlvtU4BWFf+8hL8Tg4BrTA57lKM3+gUtMrYMudXtTAHrFLsCbCrAO9PXMGfxDrVlSmA4Y4tKy/bX/U/9IsLf7ccbpgDAXgOQBDY2z1O4SgFApxH272VNOeLjTZa01GZsCwIuNotIWA+QMfgA4aLPk8PxOXsUP7HdyiWKz7UnX+DIGT2b8OjuKAM7UkHFft40W2CyqTuzNF/QllY8VHsAnegBbGR21x8yL+VtDEs59CsmmifR+8bWz02pwJKwFAL/5mm2Df5KklSVv5cgVRTcLXkmsJGFCOKfw/FZhBHbSWO9nrfVd0X4xu4wp2Q3kAfQiWlAW4xYwPGtaaaN79/7yhgEZHEcYfYBKlOB1UWx0g9wPM8+LFgmdGlSJMuuFOkyEZiXPXkhUH9W219ej7htJN9mGVMPgP/GRpmLgGczFFGHKcA5lQLsTJ4w1QLY23cSwC0Gu1OaDzgkks9yZTEMsKuAArlACUzmBnZhsV5sXYrF2ZUb+TYQ/pzZ9oc/lcHxzwj2NAWcYSx2dkw29lGmyiYqVk8BPi5B6ERSwLmmfeJoU212MZfthGcP2mxlAhjMm+ZsfFclECqlabzGNRzDbvyGtVmN1Vib37AbxzCW15hWDHyiCH/57sMbDIpQ4QDz8LXJZ8riuDVC+dRJpkrPDI5zVATUqQrANsUnh+Nlk03zgcXXpnpAf9+3I+xqp4AVmGbOBHRVAgWyM2Ta8zN0ROaK1rgQ6W/4p/qRn0UQpxRwnNH+53BsF+HeT5lGluRw7CgF0KlZgMWCY8ILhlh6pYj1gNb98ihdAekgzVgwtOP0rAbyZMlUKL4COTJki+nLQuR7hypv6wj5dJ/a/MKkLn0T0FDzfZc25hUcUzUJoJN53mQnssEZvLYgYDPjToALDvaaLcICTAWT80IH3dVwFcr268uv+u6XC849tNvSVNCSlTWMFsniONV4d2tNZnggiOjgIOBMcw//o+b79jdNzC35AH+PJDaJYM5Ntg6RjfMqbTieHsmSJoFF+M7cQp1jeWNyMQHcG/NwFtGmCmBLcwnKVJYwZ6CPNc3MKxTvvHSEvLl/govKvIBCC4W/ZP0vLHs667c/JoL9vyNCBcD8wVGtlpnFm0kBdHIWYG5jLUAWxyERpttNjVQ3f3sk0fE/eUHEXfpGib9PI55fg/j/wjjqxAvqJhGap/YyTVIs4JjIXMoAdLYKuNu0bx9lbFQSuM7sA/iNyL0i1aL5BXtShBr9Rom/z5+cGFH8Pc8Y9jMKEYeoeR40ZHZcJL9CtCX2I0K8q2vfCfilqQzFFesQ9oxYjOoX7b5lKqAVsb8Xsn0ji38qOFpsWlUPphBxqy7qZKa91QXQ6R7AUhEKUU+IEC8+2qtohiolg+Nj1q7BDiWCgy8mmhKOjbh8P8MmQDLi0yeAtXmuaqdBqGRej1RZcKS5snAaS8oDEE+aHMY8jneMZTvhZmCux4VdKEbw9zG85jRUGliKD1uiAvzOfK3zB73QHRicMNBTGBMq3igDu5K8anqfORxPaPFrJwCOjlCLtlWEpfh0Dz5AqWzWcVLxKWr3Yca1TAGMq8N++oBnfq7t0Q8oFA89S0d4m7+KcJ7iX7UD0OlYx1GVHxNirUb/XTc+QLnrP5ktykShVvFfxjQpqDE5gCzL1OVCe+HbhHHdKoHoBcDJsnHvBUMCcwW1AQuKXYGWrPf0SHv2T3TxAcpbdJ9jibrtTwrY3th5EL8CyOPYvs7P4DMZ/Tme6UELkiurSszheDKSOlwkOKHRUtr1mBa+8Mv3IKPVyOI4LcJ+dKU7Wu76/4NkDPnnFHCqqZaxEQogg+OUGJxo//vLcW+wK1IqVc7jWDfSzIRjIrzJAxUAiLAp6EeT3cjj+MI8PqK8yqDc9c8EY7riWXwPmFJejbhyOP4d0zvw38XvGV+sLPTf2zVmfysBDOMjQz4kHPWqJiBRXDr3RDiG+6AI465XKssv5MnieIdVatg464lhxm66RoUAXzAstmyMn+NzXiD8ORxTWDTSbMFREY4tv0viL0pLZwfj5P0cjjfpF+HO4dARb9VuYZbYSk/8vP7WtQT5v7xmjIk0r1bX4OngL0TrLrRtAIapxd8rABDlltTqPOZw7BKhLm0OPsUxHYfjsBhdf69GRletY+yp+bf6ZTtWc3SstXRhMDCaqTwfUXVsY1TiUWYLiI7xAU4zpY/CnekolWk74XB8zvrFrHdcTrMfQ54x2Ol8xMvWZpTBcWnsW2n+bkvz04h3ftbUW+DV1imy/6Jyya1gaqsJF9AukWb53cMLzNOAqvMEL1QZalZPgFCoKky+TSfRIJUcbUxKlCNU7bMFRAclAu83dadH9QH8sPABsVucBDAvU6o20+RxvMsO/D7C9Qe2LPYyVBOmKebTDaJ+vmj3fCGC/b9XCUAxow3ZKtI83z0i+QDx25sUsInBZ8niuLyG+x9g7pLcpMXutD2JG+ZwtlAAILoLBGxZZJ9G+oChkcZfx0066HvLVLF5WRz7AwNIma/+wLqG49N9XcORLW+pHcBbxrboHI5X5PyL7u3I3sYxHt6uHt1SO5IAbq5aveA/ydo1TBuY3TTePIvjppY61Gngz6azk6OdLiQ6MAswKxOMQyrzOL5l/pYu/f68V+Vp/XN+HWnucImHDFmAPI736N/StzZ38Tg2yxlPHzOrMgCiJx/gb0Zb4n/qspbZEt8HmKmaAszheKTG7+I0Q4DhR5ot0zKRSgXTEe3v7DjZf9GzUM3LN6bS2rBUZp0WLafyxFc8x5rNeP/tTN5QDscOLfwWfl7xPlxVb2ge2X/R24I6yWxPcrhI1WpxP+npBgudw7FTDeLpW6SmGYaltXq2/hOR7P9Jsv/C6gPYltSBLcuBP2iI0R1ZflqjzUvzhsEHyOF4sGXpv71N4h/a/28aVLMg2soHONlsU/I4JrNYS6rKZuFLUwrwfQbUdP9k2cEd1QTrS2Zt+udPAgsVR6LalPXJsv/C4gN8HckHaH5dWRIYYdinj3Kkdnf21TYy3eEY0XQlmAD+Zd7+8/Zf8b8w+QBHmBdWaWe5mWFAGtjH0AeYCQZfphuoZPw3sE8LvoHdi1UbNkV9pOy/sFmWIbxnqiwrhQGLNtUCJoHLDO55Acdv61j2w/jcWAx0WdM//8LBSHFruvY9Bsv+C6sPsJtxtkxoXR5uupp6qWofYAHH93UWK91nSDTmcLzUdNG6z5z+8z7KbrL/IgrPGX2AUAUc0zQbmADmqzr9NhTMZF2K8ERjMdD3zNc0+xoeLJY1tW+7YAazEJGWWGmib8HYNb9+k1RACvhthD7AZB1/Z0tjaXR9oUZU93/d4rduydLkcWws+y+iLrNrjafXOxzTcLzexATYX419gPvWkZxLAAsZ5iX7ZONRTUwDvoZjWi9nCnYN0MZq/IeIrgAW4tsqaabyab9vsGbT4n+41dgHWO/2XJKXqxYc+ye5pYkpttWCxu3ex5aFKdpvWVDpP1GLnT24Vx+g/KCPsQxp4iIbwPumIqAv6+x8C6cOWoqBai04qk0BDmJMUfUUenw//t8Plvsval1qL/Z6wGd40MeoYszcnOX/U0MCLI4S3XTZrP3qidCfNjUNCHsE3373oUAo/i9oGYval9nIbnvNyl3/N2M96MP2VDsa+wDrbdJJAquakm05HDs20dL66cor8loPoUDpjY2U/Rf1CNspM4QBM7r+6SY/0xnGPsA42nQHG4akeHVzRpNFLQ0M7CEUKARDy/8u8Rf1udv9eL0sDCh3/bOMbqLrX87DpiKgOAZ1JIA7DFmAXAuKoXoOBUqzm/sr/SfqXWJrVZytU3L9V22q618SyNmKI7AaP6orHZy4W83fyOP4qsbRY/GHAuGbWlv2X8QVBmTKEkutcP1LUflaxj7AOIZ1WouO/L+u1ZL99hlDAbn/IlabC08Hi6u1rr+1STe+cd2240fCsqP9WjQcpTIU8G/qGRJy/0VcVndpfggWV2tc//JnucLYB7hJbPb4WWMx0BUtq7grDwUyOH5gaVX/iTjt7i4tdf3LVcArphRgXEd2hXN3M4Y04MstFbnyUGDXlh9WItouELiYQ1vm+peeYgF+MPUBxnVoZwr4o6HuoIDjBxZoqdvt38zBXCLnXzQ2J9C6Bf4/hv68OI/tThhPTvb/ummLE28Se9HgCLzVocgxxj7A0TE6wQP5wFgMdMxM4Hor8hdt7H3cZuwDXDM2UUgAt1T9q/7fb5MVFqJxDORDUxHQF8wSq99xhGHrMY/jQwbqJQnRKPv/M8McvByO+2N2qTcyFgNlWU4+gBCNIAXsbOwDPCXGZFwCGM4kQxowh2Nn1d8J0SgFcJaxLn/72MXwcUMxUAbHWVIAQjSKR01FQNNZKlZHPAWcbWxBflQvSYjGZABmr3p4ubf/79Avdt/DMoTEH8A9u7IAQsRNEviFsQ/whphFMAEsE/RDFqpuQP5Ce/FCxE0a2N+wGZfFcXgDynH68Y6hGCiLY3/V4QvRCA/gSmMf4Max2+AEcJ2xGOhKeQBCxE+KV6tmAAo4vmPu2KPwNHCIsRjoVe0CCBEvCWDBqqf0+Dz8sw3yP9YxNgT9qIM4hIjb+sPmxj7AixuwE+/3IL42ZAHyODZTLYAQcbvgxxr7APdqWBLuIcNh4RkcxyoNKETcFvhfpj7AAqs1JAmXAk6tqoL8E96uEECIeBnEeFMR0GcMbVgQsp0xBBjPIL0wIeK0/yt0e0bhjH2A9zbwGRZjmqkYKMfy8gGEiNP67mrsAzy5gQm4FG8YfIBcMJRTaUAhYlMA5xgm8+ZxbNsw0UsCYwzFQBkc50gBCBEnjxn7AJdomPNtPZQkh+MxvTAh4ou+f8JEUwrwrZj7ALt6ACOqtiP555jIT5QFECIuwVvHMJIri+O6BovdMD43ZAEcjnXUESBEXK73QcY+wEMbXoJzr6EYKIvjIBUDCRGXB3CVsQ9ww4ba3RRworEY6Cp5AELEJXjjTH2Akxne0BAgBWxpLAZ6XbsAQtRPAliYqaY+wKeb8CwLGs4mLOCYysJKAwrRHKvrd98vbMLue5KXjdMBt1AtgBD1kgaON07k3aPhibck8A9DSVIGx/FKAwoRB3ea+gDzrNLwxFsa2KvqjoR/2jv04oSon0F8bCoC+oQhDX+WJLBq0HZcLQT4mMF6eULUK3ArGfoAszjubtIzDWaCqRgox4raChSiHlLAH419gCc2Jea2jibJ4fij0oBC1KsAzjP2AW7dFHFLA8cYioEyOM6TAhCiXp4w9QFOY9Gm7LungN8aTwp+Qi9PiPrc7TmYZEoB/qdJW24JYF6mVC0GyuOYxBwqBhKiVpLAesY+wLFNTbg9a8hLFHCspzSgEPXE24cY+wAPaVrZTQq4wJCXaO5TCdGWHsA1xj7A9Ztma207E/6pr5EHIEQ9PsAbpj7ASczZtGg7ASwf1CZUywK8IfsvRO2CtqixD7DZ+faBfGBSTFObtDchRNuRArY29gGe39Qd9wRwsyE0yePYSrUAQtTm/sMJxj7A5tbcpYEjDMnJDI4TlAYUolbuMvUB5lipqcm2JLCRcXvyLr1EIWqjettNa/ruEsCcTDKlASeoJ1CI2qzsyuRNfYB3tuQJHzcUAznyrKytQCFqibP3MPYB/q3pcXYKONuYn9hdaUAhahGxC4x9gFs2XcRSwI6GYqDm71AI0TY8ZeoDnMoiTd9rTwDLkDHVKDylFylEdAEbzremNNs40i1RAP15x1QM9G0TqxSFaAuSwAbGjbarW5JkSwLXGfsUNlAaUIgopIE/G/sA92+JfU0ABxif8M8qBhIiqn291mhfX+U+HuLBJl8PcR+vGn2Ua+UBCBHVB3jT0Afgqv57Y6/qT5fH8absvxDR3OvFmWaYvOdLbXItuvLGJ5zGYkoDCmElBWxjsv8z/+V9gN+pFkCIKArgJMPo7b6hADI4TlIaUIgo3IMj1+fF3wWf4h69UCHsDOHTtgoBPm3CuYVCtAX+AM58yzP8ce4U5FlVW4FCWEgDexoabfqOAsjh+JOyAEJYU4AXVu0D7EtXBseF2gcQwsozbecBPKOXKkR1EsBcTDYU2fYdBVDAMZm5VAwkhCUFuFEbiX9JBWyoNKAQlhTgoVW77PqaAsjiOFRpQCEsIcD1VfsA+9qVxXGdQgAhqtOPt9ukCKiyGOgt+unlClHN/i/B9LbMAUxnCfkAQvRGCti2zex/yQfYVrUAQlRTACe3SR/gjD2Bf5cCEKIa9xn6AH19fWYmuQqGvoUcjvv0coXonaF8ZgoB8jNdw0/1EOAzhuoFC9ETSWB1kz3N43iREziVv7f0OoVTOYnPTSrAUWB1FQMJ0RNpYC9TEVAGx6kzzXM/Ywpasjj2UjGQED2RAi429QHmcYxnN9JAmgGkm34NoB/Qn32DI8xtPYEXKw0oRG88Z+wD9CL3PL8DINFUsUoGbvyWvGQeTe57Ap/VCxaiexLA3HxnKgLyuwC+XPhxNq4Qy0Y/pVc16/FIUOSbNz5xAcd3zK1iICG6t6vwK2MNYCFIquWC2Pte1mmCEgiFf3luCrb2cmVPY3vmjZUGFKI70sDhEfoAS0rAhwO3sUqQSWiMhfXCvwiXkA38j0KkkmWfBjxcaUAhegoBbojYBxgqgVAYx7JcQ5SAF/7ZOYEpgeNfqKFfIYvjBoUAQnRPP96poQ+gpAR8rv0iFolVCXjhH8ABfFKH8IfFQO+oJ1CI7u3/UjX3AVYqge85i3ljUQLJ4Pd34O1IKb/eegKXkg8gRHd2dvu6+gArlcA3HMPsZRa8FuH3ybpNeKpu4S/3AbZXLYAQ3SmAU+ruA6xUAp/xl+BEnqgCF+b71+DeGvL9vfcEniIFIER3/DuW8wALFVUC7zGK/pGUQCj8S3FVUHKUqzHq774n8H69aCFmZBhfxDYKpFIJvMnOZX5GdU8E5uEcptaV8us5BPicYXrZQlTG27CmqQ8wigooVwKlouFkFeEfyuF8Hbvwl/cErqFiICHKSQOjYx8G3rVe8HF+VZHeqxT+BJBkLz5okPCXioFGqxhIiK4ewKUNOQ/QUjQc/v9bBM099ef7e+8JvFQegBBdU28vNOw8wN6Khmtt7qnnnMDnVQcgRLnww7xMqSp4hTK3vFDzBmFl0TA1N/fUroqmMI+KgYQoDwA2MQie//dczTa6a9HwxSzAglxaY3NPbarJ/8yvFQQIUZ4CPMKYAswHwluIRQlMZGIMKb/SfoNFAWRxHKE0oBDlIcBNhj5Av4/+CO8Vo+k4lEBcwm+bD+w/5U0KAYQo0Z//GoqAvAJYnyFcEVNrTr6ulF+l8H/CCUwy5DHyOP4bVCcKIfsPLEPGmAL8gYUAWIsn6wwG4tlZCFuPjmcO00RD/3sZlpYPIARB/d0Ohi1AbztfIVms2RvF5w0s2rEK/3ecznzBZ7HUMvjgZQe1BAkRKoDTTH2AWRxXBvlzLzxzcm6dOwP1Cf+PXFAcP9LPWM3oewJPkwIQIuRB89EaB5blz70ArRaU8DQ+GOi6jXg5SwXPkQjU0ghTIjCH4wG9dCE8s/ClKQXocKxTsYMe1vHtyoQGBwOVhUSO6/hZmfCHzMpXVT+JD2W+ZBa9eCGsdtOLzSTmmCF55tXB7JxNvmHBQHkJkuM2Vg2Ef8ZinodN2QyH4+cqBhIiDexjipxzOJ7oJY8AK3B/A08O9s93NyMDtZPs9inOMmQzfBCxj4qBhEgCl5mGgWdwXNBj6iwMBn5rqiiozQO4kzV7FP5QAexsamnK4rhMHoAQkOBFk9ucw7FHj1YzFMoNGNcwBXA5c5f5G919ElienCGcyeF4UXUAQsIP8/G9qRHIkWfVbq1mSfgfaVgIEA71PpU5elUCgxhvSAMWcHzPfCoGEp1NCvitSfzzOD5jaI+u/8/5V7DF1pgkoCuGKV9wUK9jRu8wdTUUcPxGtQBCKcCjTEVAORz39SD8P+OGwPI3YxvQ4XiLHbvNBqSBv5nSgBkcRykNKBQC3GKymBkcp5ZZzESXwzoLTSgIrmz+eZKNAj8gUeHRbG3KQWRx3KIQQHQ6A3jf3Af4+6IC8P93Lk6p67DOWlVAaXbQbaxcoQQSwGJMM/YEvscALQDR2fZ/WUMfoAs66JYBkoHwD+MIvmppK1CYbbiUhSsyAmneNKYBMywrH0B0dgpwR3Mf4HsMCIRlAPsUh3fnZ4Jm4O84nlmDT5QErjcFNTkcOyoNKDpbAZxh7gO8PfitXXirpcLfvRL4mH1IAf2Aw8w9gWdIAYjOxlY7n8FxMPA7XohF+EvCm4txINhrwelDvzEFNTkcD2kBiE7OAFi658Jd+NO5IxD++oZ3d+3rywaFQ/EogYdZg1mYVLUcyYc1XzGrsgCiM0kCI03984WiOOVisdiFotDfHMtZQF33Bq7jQ0M9ov+dkeoIEJ1JGtjXOAw8zLvHIfyhmN7DCKAfo3g/NiVQ8issnymLY18VA4nO9QCuMPUBFspO+41H+B9iw+IzwGAO5JMYlUDO+KRZHJfLAxCdqwJebth5gD0L/1NsFuQgvOD5LPzsHBfLoeD2w8t8GvBlib/o1BTgAvzQhOLd8hTdK2wb/PXKzTf/3+ZuamVhOOZ8fqUBReeRAjZtau3+m+wcCFqqW4Xk/9dFOZ+pTVIC/t6bqhZAdGYK8GhTEVAcwv8eo3tt4a1UAkszpstZwo16xgyOo5UGFJ0ZAtxmSgHWK/wfcwhDqgp/VyWwMjcGLca5BiqBLI7bFAKITmQAHzRseFdYoPsVRzObWfhLyUmfmBvJ3bFUH/ReDPQBA7UYROfZ/+WCPv5GCf9kTmZ4IPzRLWxpzNjDDVQCBRxZlpMPIDovBbhzrFuAXY/sOpsFaxb+khLwv7s5z5QVIRdiVAJ+K3AnpQFF5ymAs2JLAXY9sutSlqxb+EtP6u+xPa81oAfRpwHPkgIQncejsXgAhS75+rEsF5vwl6srSLM7b8esBLwH8IgWg+i0DMBsfF13CrBra89trBIIbPzVdV4JDOQAPo5RCfg04NfMriyA6BySwC+MLTP21p6ej+yKVwnMwuF8GVupkP/dtdURIDqHNLC/sQ8wWmtP44UoHEd6EpNiUQI+c7G/ioFEZ3kAV9ZcBBSW+Xjhfzpo7Uk2LY2WCER1Ac4NioZzdfQp+m/hn/IARGepgFfrygD433uZbcpUSvOVGCzOJWTqCmZ8FuBVib/oFBLAgnX0AfrfeoddSQFJ+pFsyZWiHwArcrPhQNDeP82PLKg0oOgMUsBmddh//1vjeIDneInnW3q9yEs8ymNMqdsH2Ey1AKJzUoDH1lkE1KpR4I14Il8MdKzSgKJzQoDb6+gDLARWMzfTXPm6koD+m/hfhQCiUxjIRw3oA+yrlw8BPmKQFoboDPu/fB1Js/ZUAY4cy8sHEJ2RAtylCaNA+5YCyOHYRWlA0RkK4BxcsHuuywUdjI5zpABEZ/B/8gC68QD+TwtDdEIG4Cd8oxRgN2nAb9QTKNqdJPDLmXQnv/VVBL9UR4Bob9LAgXX0AbavAsjiOFDFQKL9PYAxDRoG3revLI4x8gBEu5PidWUAesgCvKZdANHuKcCF+LHhp+71RQXgewIXUhpQtLP1hy1k/3vxAbZQLYBo7xTgcQ08D7BvK4AMjuOUBhTtzR1KAfaSBvyXQgDRzgxivEKAXkKA8eoJFO1KElixzj7A0rm/M99V7zkBvidwBW0FivZNAe4WQxdAYSa24vV3BOymNKBoXwVwbp19gN5R/pALOY8xjOGKmeC6kqs4nwv4sO7gJoPjXCkA0b48XqcH4F3sadzEz2aqz7U01zKt7hAgh+NxLRLRjiSAOZgYQwow/O1rWBqA/qRaNBa8PwCLc0VMIUAex0Tm0E6AaM8U4LoxnKRXfhD4VM5ibmjJ3rl30+fkFL6P8ZzAAo51lQYU7UcaODiWPsBKJfAlhzK4TCSbJ/wDOZBPYxP+Uk/gwSoGEu3pAVwdWxFQpRJ4n92DMCPZhM/h3fOdeDtI3OVj7G3I4rhaHoBoR1K8EWsRUKkmwOF4vnhIaLKBwu9t/yY8FYhrPtbGJp8FGKddANGOKcBFmBpzH2ChixJ4gLUCVZNowCfwYrkG9wYnAufK1FCcKm0qiygNKNrN+sNWDSkCDoOBUCCvY7nYlUAo/EsxBhccTV5oSFOz9wG2Ui2AaL8U4AkN6wMsZQQKODKcy7wxpgX9XYZzOlNjTfn13BP4N6UBRftxZ0P7ACvTgt9wNLPEoAT8bw/hcL5quPCX0oB3arGIdmMwE6qGAIUyQa5fCXzEnqTKHPjoKT8fROzKe00S/jAEmBBsbArRFiSBlYOMefVzf3N15dYr04Kv8rvgCZIRn9j//Ga8GEO+v1A80bhg+g7yrKStQNFeKcDdq3YBlAtHfda2Ugk8xDqR0oKhxzCS+4NnyZXtONT+NDlTubDvCPij0oCivRTA+VX7AL37+zJHxBBvd90buDFoHqqmBELhX44bi5t98amibwxekP+WzpcCEO3Fk4Y+wAyOS4F5Ysm4V+4NZLmYhaukBf2/zM+5TC/7zUIsGYlP2Z21DeNQvAfwpBaMaBcSwJx8W1WUvKjsHfxWPHvulUL4HScwaw9KwP8vQzmaSbEFIeV/dzZgIJ8YEqEFHN8yp4qBRPukANc3CJP/158DqVir7iqFcQL7B228qTLhTwAp9uKDWIU/jyPLRYHnkQbuMmyF+t9fX2lA0R6kgUOq9gH6DMAXwe59ed3907Hl4cNY/A22C/5Gspjv35JXY8z3hyrrVlYoqpiUsRjKq6pDVAwk2scDGGuwfDkcD3T5zTg77yqVwBNsVPw76/FILM09lX/h4S67Dylga1M5dBbHWHkAon18gP8YYt8MjtNmiM/9fxvAgXweU1qwFFLcwfIsyy2xNPd0rT/YtuhjlOdCFjUMDvO+0H9k/0W7pAAXMy37HI4deknQDedUpsS4QZjHMT14sjhTfh+xZyD2qRpVoZ97uKjSgKLvkwJ+Z1z0GZbpcdF7YVqUf8a+NxCn8E/kmF56EKzBkPcBtlYtgGiPFOCJVVNffsm/x4BefQkvDqtye5nTXqhTCcQj/F59nV+lCzEN/NkwFs2HQycqDSjag7uDFF+1xNfNVZ3ecOjXhjzZkJk8jZ1DkAQ2MD1vFsfdWjiiHRhiKn/J4DjKZPPCxNr2jGuREug6iehBfllV+MN8yHBTSVQexycM0eIRfZsksIqpD7CA4zfmqNf/VH8O4JOmtep2n+9/gc0r1FJ1njIURfu/sIq2AkXfzwD8ydAHWMDxPfNFynt7JTA7xzO5if36ldOI/0Qi0jTiFHCB4Xg0vyeyh7IAom+TAi409AHmcLxYw6aXVwILcynZwCo3clxX5cyhwwMXPRW7Qgwboy7UPoDo+zxtWPBZHJfV5PCGewPLc1uwN9CIjEBlvn8qZ9U4ddAeEuVwPK3FI/oy9qRXFsc+NTu8oRJYj0eDKoFGHPwdfoKxLGlK+fWcFP3UWBcxmeEqBhJ9OwW4obkPcERdKa+weWhj3m7Q+HFHgfsYWZfwe+4xbIv672xDpQFF304B/sXYB/gls9Zl7cJ+/l15vwEKwD/j0QD0qysxlwZOMvcE/kVpQNG3Q4DrjH2AD9WZaoTB7Mf7DQsBChT4hqtZMfiLyTqedRtzT+C1CgFEX6YfbxmLgE6vMeNdEv73mlIWlGVMcb5gskaluLi5J/At+mkRib5r/xc39wH+oQYF0LPwFxq6BVivErCpRd8TuLh8ANE3sTq7vpFm2YgLvXvhb6Ttj0sJJIBrzT2B26gWQPRdBXCysQ/w/V77AFsv/HEqAVtqNAyNTpYCEH2Xe419gLeY7X/rhD8uJWDdHPXf3L1aRKKvMpTPjCnAv5q2u1ov/HEoAV8eNdmYBvyMoVpIou+RBFYznYVXwPHbqo5u/MIf71GkUT2Bp409gQVWUzGQ6HukgT2NfYA/MH+vIUAjhD8U3lyMA8GsSiAFXGTuCdxTxUCib6YALzL2Ab7Ui7h44R/SEOF3MZ7/F0UJ2JRj2BN4kdKAom/yrLEP8IoenNzQ8u9fPLEnXuHPcAkPFU8Ajk8JZLiC5XtRAvbwKIfjGS0k0ddIAHOZEl1ZHPt24+Q20u33/zk2sNRb80LZMeDN8gSGRugJnEvFQKLvpQA3NvcBrtXFA+hO+AsxCb9XI7exStlfSrATr8d4NpBNCdxr7gncSGlA0fdSgIcZ+wC/YrYyC9c4yx/O770naOlNVhzfkWYv3m2aErAVSYV3OUxpQNH3QoDrq5a7+hj34Sa4/aHwP8SGFcJf+ZcHcSAfN0UJpIBtzT2B1ysEEH2NfrxjLAI6E0g3QfifYrNAOXXvTvsnmIXD+TKWIaO9KYEEsATTjcVAb6snUPQ1+7+kaXnncOwU/Eb8wl8a3v1KcFhnwlRuNBcnMLHBSgD6GWYX+d+fzpLyAUTfIQVsZ+wDzLEMMDTW8t7Kyf1vsnPZAd3VlZf/qfk5i+8bqgTgRnNP4HaqBRB9SwH83ZDi8u7tT9gnmOQTv/C/x2j6m4W/qxJYlEuCQqb4lcBKwP6mNGAGxylSAKJvcb9pk8vxMe80SPg/5kAGRxb+rkpgOa7qUj8QjxLIcy4HmDoRcjju04ISfYlhfG7KcRdiFv5QvL7iqF6O6Y6qBFblpmJGIV4lkDNUA+ZxfM4wLSrRN0gCa5hsWyFY4IVYhX8yJzO8buEvfRq/ZzCSfxWFNk4lUDD8vKPAGioGEn2DNDDKMPGmEZ35P3I2CwbCn4hRpXnRWz/oHMjFoARKswurq8ksjlEqBhJ9xwO4xNDsGrfwZ7i0zjN7LEpgE56MpX0oypXBcYk8ANFXSPC8qdk1vtP6CoxluYYJf0h477jah6yfNIfjOS0r0TeEH+bhuybN5+3a2tN4Gxl3+5D1037HPCoGEjM/KeDXTRD/fCD89xZP60s1TcX5WLwfo/hvkBMoNOET/0q1AKJveACHGwpc6j+q0/Fv1m/p54T+7MdHxmx+PZ82g+NweQCdKlIDGdRnrsHArYYS13rt4StsRwoYzJCWfdah9Afm5m+GI9DrPZDMcSswuA+thIFSV/HYmQV4hwl8xPg+cX3EeEMbUP0KYDyv8zGftPjTfswnvM9rhtlH9X/i6cG32zdWwQTeYQH5LHEogEWqltTOfFeh4U7xzPiJ++q32ZgrxyJSAHEogIX5AUeOfJ+5GrtgC8UKwpntExcarAL6zgrI4fiBhaUA4lEAP/ZJC6Crc68Cjh+lAKQAdEkBCCkAXVIAQgpAlxSAkALQJQUgpAB0SQEIKQBdUgBCCkCXFICQAtAlBSCkAHRJAQgpAF1SAFIAUgC6pACkALSsdEkBSAHo0iUFIAWgS5cUQKcogO/IM52MLl195JpOnu+kAOJRAIvJoujqk9diUgBxMDuncQ5n6dLVh65zOI3ZJbxCCFEnKV26+uAlhBBCCCGEEEIIIYQQQgghhBBCCCGEEEIIIYQQQgghhBBCCCGEEEIIIYQQQgghhBBCCCGEEEIIIYQQQgghhBBCCCGEEEIIIYQQQgghhBBCCCGEEEIIIYQQQgghhBBCCCGEEEIIIYQQQgghhBBCCCGEEEIIIYQQQgghhBBCCCGEEEIIIYQQQgghhBBCCCGEEEIIIYQI+X+LxVInlZdLcgAAAABJRU5ErkJggg==;" vertex="1" parent="1">
          <mxGeometry x="209" y="118" width="432" height="432" as="geometry" />
        </mxCell>
        <mxCell id="HRC4iughUWAbwfXFyBaF-124" value="" style="shape=image;verticalLabelPosition=bottom;labelBackgroundColor=#ffffff;verticalAlign=top;aspect=fixed;imageAspect=0;image=data:image/png,iVBORw0KGgoAAAANSUhEUgAAAgAAAAIACAMAAADDpiTIAAAAA3NCSVQICAjb4U/gAAAACXBIWXMAAEwQAABMEAFZWm3HAAAAGXRFWHRTb2Z0d2FyZQB3d3cuaW5rc2NhcGUub3Jnm+48GgAAAeNQTFRF////AAAAAAAAAAAAAAAAAAAAAAAAAAAAAAAAAAAAAAAAAAAAAAAAAAAAAAAAAAAAAAAAAAAAAAAAAAAAAAAAAAAAAAAAAAAAAAAAAAAAAAAAAAAAAAAAAAAAAAAAAAAAAAAAAAAAAAAAAAAAAAAAAAAAAAAAAAAAAAAAAAAAAAAAAAAAAAAAAAAAAAAAAAAAAAAAAAAAAAAAAAAAAAAAAAAAAAAAAAAAAAAAAAAAAAAAAAAAAAAAAAAAAAAAAAAAAAAAAAAAAAAAAAAAAAAAAAAAAAAAAAAAAAAAAAAAAAAAAAAAAAAAAAAAAAAAAAAAAAAAAAAAAAAAAAAAAAAAAAAAAAAAAAAAAAAAAAAAAAAAAAAAAAAAAAAAAAAAAAAAAAAAAAAAAAAAAAAAAAAAAAAAAAAAAAAAAAAAAAAAAAAAAAAAAAAAAAAAAAAAAAAAAAAAAAAAAAAAAAAAAAAAAAAAAAAAAAAAAAAAAAAAAAAAAAAAAAAAAAAAAAAAAAAAAAAAAAAAAAAAAAAAAAAAAAAAAAAAAAAAAAAAAAAAAAAAAAAAAAAAAAAAAAAAAAAAAAAAAAAAAAAAAAAAAAAAAAAAAAAAAAAAAAAAAAAAAAAAAAAAAAAAAAAAAAAAAAAAAAAAldcqRwAAAKB0Uk5TAAECAwQGBwgKCw0OERQZHR8gISIjJSYnKiwtLjAyMzQ3ODk6Ozw9P0BBQkRKTE1PUFFSVlhZXmBjZGZnaWprcHJ1d3h5enx9fn+AgoOEhYaHiIqMj5CRkpOUlZaXmJmcnZ+goaOmqausrbCxs7a3uLq/wMHDxMjJy8zOz9DR0tPU1dfY2tzg4eLj5Obn6err7e7v8PHy8/X2+Pn6+/z9/lOF3agAAAl9SURBVHja7dz/f1V1HQfwswtuQEIEbEKSA7WwG2OWDamuuESp+CoSq1TwCyhJk1BsETEFUkI2EWktWBd2/tSatG/3wd12r/ZBz/v5+vGc88P78X497879uiz76mXV45U9r54c/HQ8L0jGr557+5Xdle6Vmcyb7+x+Py9szu1ar+E5Uir/5u95wXOpr1zS9N3TdT4PkfNdur5LNpzOw+T0Bn3XpP14HirH23U+8+a/t5oHS3WvpwJTWdafB0z/Ms3fyZoLechcWKP7iZSv5UFzraz9LKtU87CpVvTfM8dNsvd731i79bcjRSbQE73/zhv1VjO05X+XfPNUgQHc6Izd/4or9TYzcP/0Vb8qsIArKyL33zZQ95HRMeOylndnv5X6s4fW/+RMUQQMtAUGcKzuWnpnf0A8OuPUi60ThxbtLoqAY3H731Z3KWP3zb7ytelTf5p8B60w7x5ti9r/kqG6OzlTc+n26VPfnTy2rigAhpYEBbCz/k5erv2ocOrMraltlUaLImBnzP6Xz/ECf1fNtd+aOnN9+uClogAYWR4SQN8cK/lDzbU/nD61avLY/cV5LdgXsf/VY3PdFmsu3j99asfksZ82sOGxD//WYD78d0IAY6sDAjg650q+Pevalr9Mn7n54J1jKxf+FnG1977G52vdcTudgKPx+m+d+yncnxfNvPjpmaf+sXXi0JZPFr7e55sb8dfpAIy2hgOweZ6V7Jhx7QM1HxgM95/4uJH1rmvyc4qEN4HN4QAcme/P9i8XT176/S/6XfGO5kZ8MCGAI9H6bxmedydnOls+f7V46Av/Qujnzc34i4QAhluCAdi4kK38872XTlz+Erb7rx81M+KPb6Z8JbgxGIADaV9oXzr1xwZzKvFvlA4EAzCYy6wMBgMwovKat4Nj9b9U47VZGgpAu8JrE+u3YpsUXptNoQD0KLw2sb4g3qvw2vSGAnBQ4bU5GArAYYXX5jAAAAAAAAAAAAAAAAAAAAAAAAAAAAAAAAAAAAAAAAAAAAAAAAAAAAAAAAAAAAAAAAAAAAAAAADA1xhAwP+Y3QYAAAAAAAAAAAAAAAAAAAAAAAAAAAAAAAAAAAAAAAAAAAAAAAAAAAAAAAAAAAAAAAAAAAAAAAAAAAAAAAAAAAAAAAAAAAAAAAAAAAAAAAAAAAAAAAAAAAAAAAAAAAAAAAAAAAAAAAAAAAAAAAAAAAAAAAAAAAAAAAAAAAAAAAAAAAAAAAAAAAAAAAAAAAAAAAAAAAAAAAAAAAAAAAAAAAAAAAAAAAAAAAAAAAAAAAAAAAAAAAAAAAAAAAAAAAAAAAAAAAAAAAAAAAAAAAAAAAAAAAAAAAAAAAAAAAAAAAAAAAAAAAAAAAAAAAAAAAAAAAAAAAAAAAAAAAAAAAAAAAAAAAAAAAAAAAAAAAAAAAAAAAAAAAAAAAAAAAAAAAAAAAAAAAAAAAAAAAAAAAAAAAAAAAAAAAAAAAAAAAAAAAAAAAAAAAAAAAAAAAAAAAAAAAAAAAAAAAAAAAAAAAAAAAAAAAAAAAAAAAAAAAAAAAAAAAAAAAAAAAAAAAAAAAAAAAAAAAAAAAAAAAAAAAAAAAAAAAAAAAAAAAAAAAAAAAAAAAAAAAAAAAAAAAAAAAAAAAAAAAAAAAAAAAAAAAAAAAAAAAAAAAAAAAAAAAAAAAAAAAAAAAAAAAAAAAAAAAAAAAAAAAAAAAAAAAAAAAAAAAAAAAAAAAAAAAAAAAAAAAAAAAAAAAAAAAAAAAAAAAAAAAAAAAAAAAAAAAAAAAAAAAAAAAAAAAAAAAAAAAAAAAAAAAAAAAAAAAAAAAAAAAAAAAAAAAAAAAAAAAAAAAAAAAAAAAAAAAAAAAAAAAAAAAAAAAAAAAAAAAAAAAAAAAAAAAAAAAAAAAAAAAAAAAAAAAAAAAAAAAAAAAAAAAAAAAAAAAAAAAAAAAAAAAAAAAAAAAAAAAAAAAAAAAAAAAAAAAAAAAAAAAAAAAAAAAAAAAAAAAAAAAAAAAAAAAAAAAAAAAAAAAAAAAAAAAAAAAAAAAAAAAAAAAAAAAAAAAAAAAAAAAAAAAAAAAAAAAAAAAAAAAAAAAAAAAAAAAAAAAAAAAAAAAAAAAAAAAAAAAAAAAAAAAAAAAAAAAAAAAAAAAAAAAAAAAAAAAAAAAAAAAAAAAAAAAAAAAAAAAAAAAAAAAAAAAAAAAAAAAAAAAAAAAAAAAAAAAAAAAAAAAAAAAAAAAAAAAAAAAAAAAAAAAAAAAAAAAAAAAAAAAAAAAAAAAAAAAAAAAAAAAAAAAAAAAAAAAAAAAAAAAAAAAAAAAAAAAAAAAAAAAAAAAAAAAAAAAAAAAAAAAAAAAAAAAAAAAD3GoAAAAAAAAAAAAAAAAAAAAAAAAAAAAAAAAAAAPCl5frFd07UzTsXrwNQZABnn1s732RrnzsLQEEBfNC1sOG6PgCggADGny0tdLrSs+MAFA3AaHcj83WPAlAsANVyYwOWqwAUCkCl0QkrABQJwFuNj/gWAMUBUO1ofMSOKgCFAXC4qDMCsLA82syMjwJQFABXS83MWLoKwP8tB5Pu9o3mhnwj6ZAHQwHoTbrbfc0NuS/pkL2hAPQk3e1TzQ35VNIhe0IB2JR0t080N+QTSYfcFApAe9Ldbm9uyO1Jh2wPBWBp0t3ub27I/UmHXBoKQDaScrdvNjfjmylnHInVfzaYcrmfLW5mxMWfpZxxMBiAA0n/vD7WzIiPJR3xQDAAG5Nu9/VmRnw96YgbgwFoGU653dvrGp9w3e2UEw63BAOQHUn6+DrZ+IAnkw54JFr/2ea0n7U90+h8z6Sdb3M4AK1pv3Z5e0tj421JegPIR1vDAciOpn2I3XyykeGevJl2uqPx+s9Wj6XdcX5owf+Lru1Q4tHGVgcEkPUl3nJ+eeuCvhhS2no59WR9EfvPlo+k3nP+0QuPzGOg9MgLHyUfa2R5SADZzvwe5NbQ2Xfr5q/Dt+7FTDtj9p8tGcrlvxlaEhRAtk35E9mWhc0x7ef5sbj9Z20D+h9oCwwgW3Elev9XVmSh03kjdv83OrPg6YkNoCcLn0o1bv3Viv6zrHwtav/XytqfyJoLMfu/sEb3d7KsP2L//cs0P/URzL5wTwSqe0t6n5GO38fq/3i7zmvy8Htx6j+9Qd93SffFGPWf79L13bPoB7/7uOjtX+oru/nPlYf2vF/c9s/tWq/h+bPq8cqeV08OfjpelN7Hr557+5Xdle6VX8Fl/wfpSYCMnXpipgAAAABJRU5ErkJggg==;" vertex="1" parent="1">
          <mxGeometry x="30" y="200" width="72" height="72" as="geometry" />
        </mxCell>
        <mxCell id="HRC4iughUWAbwfXFyBaF-125" value="" style="shape=image;verticalLabelPosition=bottom;labelBackgroundColor=#ffffff;verticalAlign=top;aspect=fixed;imageAspect=0;image=data:image/png,iVBORw0KGgoAAAANSUhEUgAAAgAAAAIACAMAAADDpiTIAAAAA3NCSVQICAjb4U/gAAAACXBIWXMAAEwQAABMEAFZWm3HAAAAGXRFWHRTb2Z0d2FyZQB3d3cuaW5rc2NhcGUub3Jnm+48GgAAAeNQTFRF////AAAAAAAAAAAAAAAAAAAAAAAAAAAAAAAAAAAAAAAAAAAAAAAAAAAAAAAAAAAAAAAAAAAAAAAAAAAAAAAAAAAAAAAAAAAAAAAAAAAAAAAAAAAAAAAAAAAAAAAAAAAAAAAAAAAAAAAAAAAAAAAAAAAAAAAAAAAAAAAAAAAAAAAAAAAAAAAAAAAAAAAAAAAAAAAAAAAAAAAAAAAAAAAAAAAAAAAAAAAAAAAAAAAAAAAAAAAAAAAAAAAAAAAAAAAAAAAAAAAAAAAAAAAAAAAAAAAAAAAAAAAAAAAAAAAAAAAAAAAAAAAAAAAAAAAAAAAAAAAAAAAAAAAAAAAAAAAAAAAAAAAAAAAAAAAAAAAAAAAAAAAAAAAAAAAAAAAAAAAAAAAAAAAAAAAAAAAAAAAAAAAAAAAAAAAAAAAAAAAAAAAAAAAAAAAAAAAAAAAAAAAAAAAAAAAAAAAAAAAAAAAAAAAAAAAAAAAAAAAAAAAAAAAAAAAAAAAAAAAAAAAAAAAAAAAAAAAAAAAAAAAAAAAAAAAAAAAAAAAAAAAAAAAAAAAAAAAAAAAAAAAAAAAAAAAAAAAAAAAAAAAAAAAAAAAAAAAAAAAAAAAAAAAAAAAAAAAAAAAAAAAAAAAAAAAAAAAAAAAAldcqRwAAAKB0Uk5TAAECAwQGBwgKCw0OERQZHR8gISIjJSYnKiwtLjAyMzQ3ODk6Ozw9P0BBQkRKTE1PUFFSVlhZXmBjZGZnaWprcHJ1d3h5enx9fn+AgoOEhYaHiIqMj5CRkpOUlZaXmJmcnZ+goaOmqausrbCxs7a3uLq/wMHDxMjJy8zOz9DR0tPU1dfY2tzg4eLj5Obn6err7e7v8PHy8/X2+Pn6+/z9/lOF3agAAAl9SURBVHja7dz/f1V1HQfwswtuQEIEbEKSA7WwG2OWDamuuESp+CoSq1TwCyhJk1BsETEFUkI2EWktWBd2/tSatG/3wd12r/ZBz/v5+vGc88P78X497879uiz76mXV45U9r54c/HQ8L0jGr557+5Xdle6Vmcyb7+x+Py9szu1ar+E5Uir/5u95wXOpr1zS9N3TdT4PkfNdur5LNpzOw+T0Bn3XpP14HirH23U+8+a/t5oHS3WvpwJTWdafB0z/Ms3fyZoLechcWKP7iZSv5UFzraz9LKtU87CpVvTfM8dNsvd731i79bcjRSbQE73/zhv1VjO05X+XfPNUgQHc6Izd/4or9TYzcP/0Vb8qsIArKyL33zZQ95HRMeOylndnv5X6s4fW/+RMUQQMtAUGcKzuWnpnf0A8OuPUi60ThxbtLoqAY3H731Z3KWP3zb7ytelTf5p8B60w7x5ti9r/kqG6OzlTc+n26VPfnTy2rigAhpYEBbCz/k5erv2ocOrMraltlUaLImBnzP6Xz/ECf1fNtd+aOnN9+uClogAYWR4SQN8cK/lDzbU/nD61avLY/cV5LdgXsf/VY3PdFmsu3j99asfksZ82sOGxD//WYD78d0IAY6sDAjg650q+Pevalr9Mn7n54J1jKxf+FnG1977G52vdcTudgKPx+m+d+yncnxfNvPjpmaf+sXXi0JZPFr7e55sb8dfpAIy2hgOweZ6V7Jhx7QM1HxgM95/4uJH1rmvyc4qEN4HN4QAcme/P9i8XT176/S/6XfGO5kZ8MCGAI9H6bxmedydnOls+f7V46Av/Qujnzc34i4QAhluCAdi4kK38872XTlz+Erb7rx81M+KPb6Z8JbgxGIADaV9oXzr1xwZzKvFvlA4EAzCYy6wMBgMwovKat4Nj9b9U47VZGgpAu8JrE+u3YpsUXptNoQD0KLw2sb4g3qvw2vSGAnBQ4bU5GArAYYXX5jAAAAAAAAAAAAAAAAAAAAAAAAAAAAAAAAAAAAAAAAAAAAAAAAAAAAAAAAAAAAAAAAAAAAAAAADA1xhAwP+Y3QYAAAAAAAAAAAAAAAAAAAAAAAAAAAAAAAAAAAAAAAAAAAAAAAAAAAAAAAAAAAAAAAAAAAAAAAAAAAAAAAAAAAAAAAAAAAAAAAAAAAAAAAAAAAAAAAAAAAAAAAAAAAAAAAAAAAAAAAAAAAAAAAAAAAAAAAAAAAAAAAAAAAAAAAAAAAAAAAAAAAAAAAAAAAAAAAAAAAAAAAAAAAAAAAAAAAAAAAAAAAAAAAAAAAAAAAAAAAAAAAAAAAAAAAAAAAAAAAAAAAAAAAAAAAAAAAAAAAAAAAAAAAAAAAAAAAAAAAAAAAAAAAAAAAAAAAAAAAAAAAAAAAAAAAAAAAAAAAAAAAAAAAAAAAAAAAAAAAAAAAAAAAAAAAAAAAAAAAAAAAAAAAAAAAAAAAAAAAAAAAAAAAAAAAAAAAAAAAAAAAAAAAAAAAAAAAAAAAAAAAAAAAAAAAAAAAAAAAAAAAAAAAAAAAAAAAAAAAAAAAAAAAAAAAAAAAAAAAAAAAAAAAAAAAAAAAAAAAAAAAAAAAAAAAAAAAAAAAAAAAAAAAAAAAAAAAAAAAAAAAAAAAAAAAAAAAAAAAAAAAAAAAAAAAAAAAAAAAAAAAAAAAAAAAAAAAAAAAAAAAAAAAAAAAAAAAAAAAAAAAAAAAAAAAAAAAAAAAAAAAAAAAAAAAAAAAAAAAAAAAAAAAAAAAAAAAAAAAAAAAAAAAAAAAAAAAAAAAAAAAAAAAAAAAAAAAAAAAAAAAAAAAAAAAAAAAAAAAAAAAAAAAAAAAAAAAAAAAAAAAAAAAAAAAAAAAAAAAAAAAAAAAAAAAAAAAAAAAAAAAAAAAAAAAAAAAAAAAAAAAAAAAAAAAAAAAAAAAAAAAAAAAAAAAAAAAAAAAAAAAAAAAAAAAAAAAAAAAAAAAAAAAAAAAAAAAAAAAAAAAAAAAAAAAAAAAAAAAAAAAAAAAAAAAAAAAAAAAAAAAAAAAAAAAAAAAAAAAAAAAAAAAAAAAAAAAAAAAAAAAAAAAAAAAAAAAAAAAAAAAAAAAAAAAAAAAAAAAAAAAAAAAAAAAAAAAAAAAAAAAAAAAAAAAAAAAAAAAAAAAAAAAAAAAAAAAAAAAAAAAAAAAAAAAAAAAAAAAAAAAAAAAAAAAAAAAAAAAAAAAAAAAAAAAAAAAAAAAAAAAAAAAAAAAAAAAAAAAAAAAAAAAAAAAAAAAAAAAAAAAAAAAAAAAAAAAAAAAAAAAAAAAAAAAAAAAAAAAAAAAAAAAAAAAAAAAAAAAAAAAAAAAAAAAAAAAAAAAAAAAAAAAAAAAAAAAAAAAD3GoAAAAAAAAAAAAAAAAAAAAAAAAAAAAAAAAAAAPCl5frFd07UzTsXrwNQZABnn1s732RrnzsLQEEBfNC1sOG6PgCggADGny0tdLrSs+MAFA3AaHcj83WPAlAsANVyYwOWqwAUCkCl0QkrABQJwFuNj/gWAMUBUO1ofMSOKgCFAXC4qDMCsLA82syMjwJQFABXS83MWLoKwP8tB5Pu9o3mhnwj6ZAHQwHoTbrbfc0NuS/pkL2hAPQk3e1TzQ35VNIhe0IB2JR0t080N+QTSYfcFApAe9Ldbm9uyO1Jh2wPBWBp0t3ub27I/UmHXBoKQDaScrdvNjfjmylnHInVfzaYcrmfLW5mxMWfpZxxMBiAA0n/vD7WzIiPJR3xQDAAG5Nu9/VmRnw96YgbgwFoGU653dvrGp9w3e2UEw63BAOQHUn6+DrZ+IAnkw54JFr/2ea0n7U90+h8z6Sdb3M4AK1pv3Z5e0tj421JegPIR1vDAciOpn2I3XyykeGevJl2uqPx+s9Wj6XdcX5owf+Lru1Q4tHGVgcEkPUl3nJ+eeuCvhhS2no59WR9EfvPlo+k3nP+0QuPzGOg9MgLHyUfa2R5SADZzvwe5NbQ2Xfr5q/Dt+7FTDtj9p8tGcrlvxlaEhRAtk35E9mWhc0x7ef5sbj9Z20D+h9oCwwgW3Elev9XVmSh03kjdv83OrPg6YkNoCcLn0o1bv3Viv6zrHwtav/XytqfyJoLMfu/sEb3d7KsP2L//cs0P/URzL5wTwSqe0t6n5GO38fq/3i7zmvy8Htx6j+9Qd93SffFGPWf79L13bPoB7/7uOjtX+oru/nPlYf2vF/c9s/tWq/h+bPq8cqeV08OfjpelN7Hr557+5Xdle6VX8Fl/wfpSYCMnXpipgAAAABJRU5ErkJggg==;" vertex="1" parent="1">
          <mxGeometry x="80" y="520" width="72" height="72" as="geometry" />
        </mxCell>
        <mxCell id="HRC4iughUWAbwfXFyBaF-126" value="" style="shape=image;verticalLabelPosition=bottom;labelBackgroundColor=#ffffff;verticalAlign=top;aspect=fixed;imageAspect=0;image=data:image/png,iVBORw0KGgoAAAANSUhEUgAAAgAAAAIACAMAAADDpiTIAAAAA3NCSVQICAjb4U/gAAAACXBIWXMAAEwQAABMEAFZWm3HAAAAGXRFWHRTb2Z0d2FyZQB3d3cuaW5rc2NhcGUub3Jnm+48GgAAAeNQTFRF////AAAAAAAAAAAAAAAAAAAAAAAAAAAAAAAAAAAAAAAAAAAAAAAAAAAAAAAAAAAAAAAAAAAAAAAAAAAAAAAAAAAAAAAAAAAAAAAAAAAAAAAAAAAAAAAAAAAAAAAAAAAAAAAAAAAAAAAAAAAAAAAAAAAAAAAAAAAAAAAAAAAAAAAAAAAAAAAAAAAAAAAAAAAAAAAAAAAAAAAAAAAAAAAAAAAAAAAAAAAAAAAAAAAAAAAAAAAAAAAAAAAAAAAAAAAAAAAAAAAAAAAAAAAAAAAAAAAAAAAAAAAAAAAAAAAAAAAAAAAAAAAAAAAAAAAAAAAAAAAAAAAAAAAAAAAAAAAAAAAAAAAAAAAAAAAAAAAAAAAAAAAAAAAAAAAAAAAAAAAAAAAAAAAAAAAAAAAAAAAAAAAAAAAAAAAAAAAAAAAAAAAAAAAAAAAAAAAAAAAAAAAAAAAAAAAAAAAAAAAAAAAAAAAAAAAAAAAAAAAAAAAAAAAAAAAAAAAAAAAAAAAAAAAAAAAAAAAAAAAAAAAAAAAAAAAAAAAAAAAAAAAAAAAAAAAAAAAAAAAAAAAAAAAAAAAAAAAAAAAAAAAAAAAAAAAAAAAAAAAAAAAAAAAAAAAAAAAAAAAAAAAAAAAAAAAAAAAAAAAAldcqRwAAAKB0Uk5TAAECAwQGBwgKCw0OERQZHR8gISIjJSYnKiwtLjAyMzQ3ODk6Ozw9P0BBQkRKTE1PUFFSVlhZXmBjZGZnaWprcHJ1d3h5enx9fn+AgoOEhYaHiIqMj5CRkpOUlZaXmJmcnZ+goaOmqausrbCxs7a3uLq/wMHDxMjJy8zOz9DR0tPU1dfY2tzg4eLj5Obn6err7e7v8PHy8/X2+Pn6+/z9/lOF3agAAAl9SURBVHja7dz/f1V1HQfwswtuQEIEbEKSA7WwG2OWDamuuESp+CoSq1TwCyhJk1BsETEFUkI2EWktWBd2/tSatG/3wd12r/ZBz/v5+vGc88P78X497879uiz76mXV45U9r54c/HQ8L0jGr557+5Xdle6Vmcyb7+x+Py9szu1ar+E5Uir/5u95wXOpr1zS9N3TdT4PkfNdur5LNpzOw+T0Bn3XpP14HirH23U+8+a/t5oHS3WvpwJTWdafB0z/Ms3fyZoLechcWKP7iZSv5UFzraz9LKtU87CpVvTfM8dNsvd731i79bcjRSbQE73/zhv1VjO05X+XfPNUgQHc6Izd/4or9TYzcP/0Vb8qsIArKyL33zZQ95HRMeOylndnv5X6s4fW/+RMUQQMtAUGcKzuWnpnf0A8OuPUi60ThxbtLoqAY3H731Z3KWP3zb7ytelTf5p8B60w7x5ti9r/kqG6OzlTc+n26VPfnTy2rigAhpYEBbCz/k5erv2ocOrMraltlUaLImBnzP6Xz/ECf1fNtd+aOnN9+uClogAYWR4SQN8cK/lDzbU/nD61avLY/cV5LdgXsf/VY3PdFmsu3j99asfksZ82sOGxD//WYD78d0IAY6sDAjg650q+Pevalr9Mn7n54J1jKxf+FnG1977G52vdcTudgKPx+m+d+yncnxfNvPjpmaf+sXXi0JZPFr7e55sb8dfpAIy2hgOweZ6V7Jhx7QM1HxgM95/4uJH1rmvyc4qEN4HN4QAcme/P9i8XT176/S/6XfGO5kZ8MCGAI9H6bxmedydnOls+f7V46Av/Qujnzc34i4QAhluCAdi4kK38872XTlz+Erb7rx81M+KPb6Z8JbgxGIADaV9oXzr1xwZzKvFvlA4EAzCYy6wMBgMwovKat4Nj9b9U47VZGgpAu8JrE+u3YpsUXptNoQD0KLw2sb4g3qvw2vSGAnBQ4bU5GArAYYXX5jAAAAAAAAAAAAAAAAAAAAAAAAAAAAAAAAAAAAAAAAAAAAAAAAAAAAAAAAAAAAAAAAAAAAAAAADA1xhAwP+Y3QYAAAAAAAAAAAAAAAAAAAAAAAAAAAAAAAAAAAAAAAAAAAAAAAAAAAAAAAAAAAAAAAAAAAAAAAAAAAAAAAAAAAAAAAAAAAAAAAAAAAAAAAAAAAAAAAAAAAAAAAAAAAAAAAAAAAAAAAAAAAAAAAAAAAAAAAAAAAAAAAAAAAAAAAAAAAAAAAAAAAAAAAAAAAAAAAAAAAAAAAAAAAAAAAAAAAAAAAAAAAAAAAAAAAAAAAAAAAAAAAAAAAAAAAAAAAAAAAAAAAAAAAAAAAAAAAAAAAAAAAAAAAAAAAAAAAAAAAAAAAAAAAAAAAAAAAAAAAAAAAAAAAAAAAAAAAAAAAAAAAAAAAAAAAAAAAAAAAAAAAAAAAAAAAAAAAAAAAAAAAAAAAAAAAAAAAAAAAAAAAAAAAAAAAAAAAAAAAAAAAAAAAAAAAAAAAAAAAAAAAAAAAAAAAAAAAAAAAAAAAAAAAAAAAAAAAAAAAAAAAAAAAAAAAAAAAAAAAAAAAAAAAAAAAAAAAAAAAAAAAAAAAAAAAAAAAAAAAAAAAAAAAAAAAAAAAAAAAAAAAAAAAAAAAAAAAAAAAAAAAAAAAAAAAAAAAAAAAAAAAAAAAAAAAAAAAAAAAAAAAAAAAAAAAAAAAAAAAAAAAAAAAAAAAAAAAAAAAAAAAAAAAAAAAAAAAAAAAAAAAAAAAAAAAAAAAAAAAAAAAAAAAAAAAAAAAAAAAAAAAAAAAAAAAAAAAAAAAAAAAAAAAAAAAAAAAAAAAAAAAAAAAAAAAAAAAAAAAAAAAAAAAAAAAAAAAAAAAAAAAAAAAAAAAAAAAAAAAAAAAAAAAAAAAAAAAAAAAAAAAAAAAAAAAAAAAAAAAAAAAAAAAAAAAAAAAAAAAAAAAAAAAAAAAAAAAAAAAAAAAAAAAAAAAAAAAAAAAAAAAAAAAAAAAAAAAAAAAAAAAAAAAAAAAAAAAAAAAAAAAAAAAAAAAAAAAAAAAAAAAAAAAAAAAAAAAAAAAAAAAAAAAAAAAAAAAAAAAAAAAAAAAAAAAAAAAAAAAAAAAAAAAAAAAAAAAAAAAAAAAAAAAAAAAAAAAAAAAAAAAAAAAAAAAAAAAAAAAAAAAAAAAAAAAAAAAAAAAAAAAAAAAAAAAAAAAAAAAAAAAAAAAAAAAAAAAAAAAAAAAAAAAAAAAAAAAAAAAAAAAAAAAAAAAAAAAAAAAAAAAAAAAAAAAAAAAAAAAAAAAAAAAAAAAAAAAAAAAAAAAAAAAAAAAAAAAAAAAAAAAAAAAAAAAAAAAAAAAAAAAAAAAAAAAAAAAAAAAD3GoAAAAAAAAAAAAAAAAAAAAAAAAAAAAAAAAAAAPCl5frFd07UzTsXrwNQZABnn1s732RrnzsLQEEBfNC1sOG6PgCggADGny0tdLrSs+MAFA3AaHcj83WPAlAsANVyYwOWqwAUCkCl0QkrABQJwFuNj/gWAMUBUO1ofMSOKgCFAXC4qDMCsLA82syMjwJQFABXS83MWLoKwP8tB5Pu9o3mhnwj6ZAHQwHoTbrbfc0NuS/pkL2hAPQk3e1TzQ35VNIhe0IB2JR0t080N+QTSYfcFApAe9Ldbm9uyO1Jh2wPBWBp0t3ub27I/UmHXBoKQDaScrdvNjfjmylnHInVfzaYcrmfLW5mxMWfpZxxMBiAA0n/vD7WzIiPJR3xQDAAG5Nu9/VmRnw96YgbgwFoGU653dvrGp9w3e2UEw63BAOQHUn6+DrZ+IAnkw54JFr/2ea0n7U90+h8z6Sdb3M4AK1pv3Z5e0tj421JegPIR1vDAciOpn2I3XyykeGevJl2uqPx+s9Wj6XdcX5owf+Lru1Q4tHGVgcEkPUl3nJ+eeuCvhhS2no59WR9EfvPlo+k3nP+0QuPzGOg9MgLHyUfa2R5SADZzvwe5NbQ2Xfr5q/Dt+7FTDtj9p8tGcrlvxlaEhRAtk35E9mWhc0x7ef5sbj9Z20D+h9oCwwgW3Elev9XVmSh03kjdv83OrPg6YkNoCcLn0o1bv3Viv6zrHwtav/XytqfyJoLMfu/sEb3d7KsP2L//cs0P/URzL5wTwSqe0t6n5GO38fq/3i7zmvy8Htx6j+9Qd93SffFGPWf79L13bPoB7/7uOjtX+oru/nPlYf2vF/c9s/tWq/h+bPq8cqeV08OfjpelN7Hr557+5Xdle6VX8Fl/wfpSYCMnXpipgAAAABJRU5ErkJggg==;" vertex="1" parent="1">
          <mxGeometry x="714" y="240" width="72" height="72" as="geometry" />
        </mxCell>
        <mxCell id="HRC4iughUWAbwfXFyBaF-127" value="" style="shape=image;verticalLabelPosition=bottom;labelBackgroundColor=#ffffff;verticalAlign=top;aspect=fixed;imageAspect=0;image=data:image/png,iVBORw0KGgoAAAANSUhEUgAAAgAAAAIACAMAAADDpiTIAAAAA3NCSVQICAjb4U/gAAAACXBIWXMAAEwQAABMEAFZWm3HAAAAGXRFWHRTb2Z0d2FyZQB3d3cuaW5rc2NhcGUub3Jnm+48GgAAAeNQTFRF////AAAAAAAAAAAAAAAAAAAAAAAAAAAAAAAAAAAAAAAAAAAAAAAAAAAAAAAAAAAAAAAAAAAAAAAAAAAAAAAAAAAAAAAAAAAAAAAAAAAAAAAAAAAAAAAAAAAAAAAAAAAAAAAAAAAAAAAAAAAAAAAAAAAAAAAAAAAAAAAAAAAAAAAAAAAAAAAAAAAAAAAAAAAAAAAAAAAAAAAAAAAAAAAAAAAAAAAAAAAAAAAAAAAAAAAAAAAAAAAAAAAAAAAAAAAAAAAAAAAAAAAAAAAAAAAAAAAAAAAAAAAAAAAAAAAAAAAAAAAAAAAAAAAAAAAAAAAAAAAAAAAAAAAAAAAAAAAAAAAAAAAAAAAAAAAAAAAAAAAAAAAAAAAAAAAAAAAAAAAAAAAAAAAAAAAAAAAAAAAAAAAAAAAAAAAAAAAAAAAAAAAAAAAAAAAAAAAAAAAAAAAAAAAAAAAAAAAAAAAAAAAAAAAAAAAAAAAAAAAAAAAAAAAAAAAAAAAAAAAAAAAAAAAAAAAAAAAAAAAAAAAAAAAAAAAAAAAAAAAAAAAAAAAAAAAAAAAAAAAAAAAAAAAAAAAAAAAAAAAAAAAAAAAAAAAAAAAAAAAAAAAAAAAAAAAAAAAAAAAAAAAAAAAAAAAAAAAAAAAAldcqRwAAAKB0Uk5TAAECAwQGBwgKCw0OERQZHR8gISIjJSYnKiwtLjAyMzQ3ODk6Ozw9P0BBQkRKTE1PUFFSVlhZXmBjZGZnaWprcHJ1d3h5enx9fn+AgoOEhYaHiIqMj5CRkpOUlZaXmJmcnZ+goaOmqausrbCxs7a3uLq/wMHDxMjJy8zOz9DR0tPU1dfY2tzg4eLj5Obn6err7e7v8PHy8/X2+Pn6+/z9/lOF3agAAAl9SURBVHja7dz/f1V1HQfwswtuQEIEbEKSA7WwG2OWDamuuESp+CoSq1TwCyhJk1BsETEFUkI2EWktWBd2/tSatG/3wd12r/ZBz/v5+vGc88P78X497879uiz76mXV45U9r54c/HQ8L0jGr557+5Xdle6Vmcyb7+x+Py9szu1ar+E5Uir/5u95wXOpr1zS9N3TdT4PkfNdur5LNpzOw+T0Bn3XpP14HirH23U+8+a/t5oHS3WvpwJTWdafB0z/Ms3fyZoLechcWKP7iZSv5UFzraz9LKtU87CpVvTfM8dNsvd731i79bcjRSbQE73/zhv1VjO05X+XfPNUgQHc6Izd/4or9TYzcP/0Vb8qsIArKyL33zZQ95HRMeOylndnv5X6s4fW/+RMUQQMtAUGcKzuWnpnf0A8OuPUi60ThxbtLoqAY3H731Z3KWP3zb7ytelTf5p8B60w7x5ti9r/kqG6OzlTc+n26VPfnTy2rigAhpYEBbCz/k5erv2ocOrMraltlUaLImBnzP6Xz/ECf1fNtd+aOnN9+uClogAYWR4SQN8cK/lDzbU/nD61avLY/cV5LdgXsf/VY3PdFmsu3j99asfksZ82sOGxD//WYD78d0IAY6sDAjg650q+Pevalr9Mn7n54J1jKxf+FnG1977G52vdcTudgKPx+m+d+yncnxfNvPjpmaf+sXXi0JZPFr7e55sb8dfpAIy2hgOweZ6V7Jhx7QM1HxgM95/4uJH1rmvyc4qEN4HN4QAcme/P9i8XT176/S/6XfGO5kZ8MCGAI9H6bxmedydnOls+f7V46Av/Qujnzc34i4QAhluCAdi4kK38872XTlz+Erb7rx81M+KPb6Z8JbgxGIADaV9oXzr1xwZzKvFvlA4EAzCYy6wMBgMwovKat4Nj9b9U47VZGgpAu8JrE+u3YpsUXptNoQD0KLw2sb4g3qvw2vSGAnBQ4bU5GArAYYXX5jAAAAAAAAAAAAAAAAAAAAAAAAAAAAAAAAAAAAAAAAAAAAAAAAAAAAAAAAAAAAAAAAAAAAAAAADA1xhAwP+Y3QYAAAAAAAAAAAAAAAAAAAAAAAAAAAAAAAAAAAAAAAAAAAAAAAAAAAAAAAAAAAAAAAAAAAAAAAAAAAAAAAAAAAAAAAAAAAAAAAAAAAAAAAAAAAAAAAAAAAAAAAAAAAAAAAAAAAAAAAAAAAAAAAAAAAAAAAAAAAAAAAAAAAAAAAAAAAAAAAAAAAAAAAAAAAAAAAAAAAAAAAAAAAAAAAAAAAAAAAAAAAAAAAAAAAAAAAAAAAAAAAAAAAAAAAAAAAAAAAAAAAAAAAAAAAAAAAAAAAAAAAAAAAAAAAAAAAAAAAAAAAAAAAAAAAAAAAAAAAAAAAAAAAAAAAAAAAAAAAAAAAAAAAAAAAAAAAAAAAAAAAAAAAAAAAAAAAAAAAAAAAAAAAAAAAAAAAAAAAAAAAAAAAAAAAAAAAAAAAAAAAAAAAAAAAAAAAAAAAAAAAAAAAAAAAAAAAAAAAAAAAAAAAAAAAAAAAAAAAAAAAAAAAAAAAAAAAAAAAAAAAAAAAAAAAAAAAAAAAAAAAAAAAAAAAAAAAAAAAAAAAAAAAAAAAAAAAAAAAAAAAAAAAAAAAAAAAAAAAAAAAAAAAAAAAAAAAAAAAAAAAAAAAAAAAAAAAAAAAAAAAAAAAAAAAAAAAAAAAAAAAAAAAAAAAAAAAAAAAAAAAAAAAAAAAAAAAAAAAAAAAAAAAAAAAAAAAAAAAAAAAAAAAAAAAAAAAAAAAAAAAAAAAAAAAAAAAAAAAAAAAAAAAAAAAAAAAAAAAAAAAAAAAAAAAAAAAAAAAAAAAAAAAAAAAAAAAAAAAAAAAAAAAAAAAAAAAAAAAAAAAAAAAAAAAAAAAAAAAAAAAAAAAAAAAAAAAAAAAAAAAAAAAAAAAAAAAAAAAAAAAAAAAAAAAAAAAAAAAAAAAAAAAAAAAAAAAAAAAAAAAAAAAAAAAAAAAAAAAAAAAAAAAAAAAAAAAAAAAAAAAAAAAAAAAAAAAAAAAAAAAAAAAAAAAAAAAAAAAAAAAAAAAAAAAAAAAAAAAAAAAAAAAAAAAAAAAAAAAAAAAAAAAAAAAAAAAAAAAAAAAAAAAAAAAAAAAAAAAAAAAAAAAAAAAAAAAAAAAAAAAAAAAAAAAAAAAAAAAAAAAAAAAAAAAAAAAAAAAAAAAAAAAAAAAAAAAAAAAAAAAAAAAAAAAAAAAAAAAAAAAAAAAAAAAAAAAAAAAAAAAAAAAAAAAAAAAAAAAAAAAAAAAAAAAAAAAAAAAAAAAAAAAAAAAAAAAAAAAAAAAAAAAAAAAAAAAAAAAAAAAAAAAAAAAAAAAAAAAD3GoAAAAAAAAAAAAAAAAAAAAAAAAAAAAAAAAAAAPCl5frFd07UzTsXrwNQZABnn1s732RrnzsLQEEBfNC1sOG6PgCggADGny0tdLrSs+MAFA3AaHcj83WPAlAsANVyYwOWqwAUCkCl0QkrABQJwFuNj/gWAMUBUO1ofMSOKgCFAXC4qDMCsLA82syMjwJQFABXS83MWLoKwP8tB5Pu9o3mhnwj6ZAHQwHoTbrbfc0NuS/pkL2hAPQk3e1TzQ35VNIhe0IB2JR0t080N+QTSYfcFApAe9Ldbm9uyO1Jh2wPBWBp0t3ub27I/UmHXBoKQDaScrdvNjfjmylnHInVfzaYcrmfLW5mxMWfpZxxMBiAA0n/vD7WzIiPJR3xQDAAG5Nu9/VmRnw96YgbgwFoGU653dvrGp9w3e2UEw63BAOQHUn6+DrZ+IAnkw54JFr/2ea0n7U90+h8z6Sdb3M4AK1pv3Z5e0tj421JegPIR1vDAciOpn2I3XyykeGevJl2uqPx+s9Wj6XdcX5owf+Lru1Q4tHGVgcEkPUl3nJ+eeuCvhhS2no59WR9EfvPlo+k3nP+0QuPzGOg9MgLHyUfa2R5SADZzvwe5NbQ2Xfr5q/Dt+7FTDtj9p8tGcrlvxlaEhRAtk35E9mWhc0x7ef5sbj9Z20D+h9oCwwgW3Elev9XVmSh03kjdv83OrPg6YkNoCcLn0o1bv3Viv6zrHwtav/XytqfyJoLMfu/sEb3d7KsP2L//cs0P/URzL5wTwSqe0t6n5GO38fq/3i7zmvy8Htx6j+9Qd93SffFGPWf79L13bPoB7/7uOjtX+oru/nPlYf2vF/c9s/tWq/h+bPq8cqeV08OfjpelN7Hr557+5Xdle6VX8Fl/wfpSYCMnXpipgAAAABJRU5ErkJggg==;" vertex="1" parent="1">
          <mxGeometry x="730" y="510" width="72" height="72" as="geometry" />
        </mxCell>
        <mxCell id="HRC4iughUWAbwfXFyBaF-130" value="&lt;font style=&quot;font-size: 24px&quot; color=&quot;#ff3333&quot;&gt;&lt;b&gt;RADIO TOWER&lt;/b&gt;&lt;/font&gt;" style="text;html=1;align=center;verticalAlign=middle;resizable=0;points=[];autosize=1;" vertex="1" parent="1">
          <mxGeometry x="340" y="530" width="190" height="20" as="geometry" />
        </mxCell>
        <mxCell id="HRC4iughUWAbwfXFyBaF-131" value="&lt;font style=&quot;font-size: 24px&quot; color=&quot;#ff3333&quot;&gt;&lt;b&gt;USER&lt;/b&gt;&lt;/font&gt;" style="text;html=1;align=center;verticalAlign=middle;resizable=0;points=[];autosize=1;" vertex="1" parent="1">
          <mxGeometry x="72" y="620" width="80" height="20" as="geometry" />
        </mxCell>
        <mxCell id="HRC4iughUWAbwfXFyBaF-132" value="&lt;font style=&quot;font-size: 24px&quot; color=&quot;#ff3333&quot;&gt;&lt;b&gt;USER&lt;/b&gt;&lt;/font&gt;" style="text;html=1;align=center;verticalAlign=middle;resizable=0;points=[];autosize=1;" vertex="1" parent="1">
          <mxGeometry x="26" y="300" width="80" height="20" as="geometry" />
        </mxCell>
        <mxCell id="HRC4iughUWAbwfXFyBaF-135" value="&lt;font style=&quot;font-size: 24px&quot; color=&quot;#ff3333&quot;&gt;&lt;b&gt;USER&lt;/b&gt;&lt;/font&gt;" style="text;html=1;align=center;verticalAlign=middle;resizable=0;points=[];autosize=1;" vertex="1" parent="1">
          <mxGeometry x="710" y="324" width="80" height="20" as="geometry" />
        </mxCell>
        <mxCell id="HRC4iughUWAbwfXFyBaF-136" value="&lt;font style=&quot;font-size: 24px&quot; color=&quot;#ff3333&quot;&gt;&lt;b&gt;USER&lt;/b&gt;&lt;/font&gt;" style="text;html=1;align=center;verticalAlign=middle;resizable=0;points=[];autosize=1;" vertex="1" parent="1">
          <mxGeometry x="722" y="610" width="80" height="20" as="geometry" />
        </mxCell>
        <mxCell id="HRC4iughUWAbwfXFyBaF-144" value="" style="verticalLabelPosition=bottom;verticalAlign=top;html=1;shape=mxgraph.basic.flash;strokeColor=#B09500;fillColor=#e3c800;fontColor=#ffffff;direction=west;rotation=60;" vertex="1" parent="1">
          <mxGeometry x="149" y="130" width="60" height="150" as="geometry" />
        </mxCell>
        <mxCell id="HRC4iughUWAbwfXFyBaF-145" value="" style="verticalLabelPosition=bottom;verticalAlign=top;html=1;shape=mxgraph.basic.flash;strokeColor=#B09500;fillColor=#e3c800;fontColor=#ffffff;direction=west;rotation=35;" vertex="1" parent="1">
          <mxGeometry x="170" y="226.32999999999998" width="60" height="283.67" as="geometry" />
        </mxCell>
        <mxCell id="HRC4iughUWAbwfXFyBaF-148" value="" style="verticalLabelPosition=bottom;verticalAlign=top;html=1;shape=mxgraph.basic.flash;strokeColor=#B09500;fillColor=#e3c800;fontColor=#ffffff;direction=west;rotation=85;" vertex="1" parent="1">
          <mxGeometry x="610" y="130" width="60" height="150" as="geometry" />
        </mxCell>
        <mxCell id="HRC4iughUWAbwfXFyBaF-149" value="" style="verticalLabelPosition=bottom;verticalAlign=top;html=1;shape=mxgraph.basic.flash;strokeColor=#B09500;fillColor=#e3c800;fontColor=#ffffff;direction=west;rotation=-45;" vertex="1" parent="1">
          <mxGeometry x="600" y="246.32999999999998" width="60" height="283.67" as="geometry" />
        </mxCell>
        <mxCell id="HRC4iughUWAbwfXFyBaF-150" value="&lt;font style=&quot;font-size: 36px&quot;&gt;&lt;b&gt;RADIO NETWORK&lt;/b&gt;&lt;/font&gt;" style="text;html=1;align=center;verticalAlign=middle;resizable=0;points=[];autosize=1;" vertex="1" parent="1">
          <mxGeometry x="255" y="105" width="330" height="30" as="geometry" />
        </mxCell>
      </root>
    </mxGraphModel>
  </diagram>
</mxfile>
